<svg width="338" height="92" viewBox="0 0 338 92" fill="none" xmlns="http://www.w3.org/2000/svg">
<path d="M18.2 4.8001V20.3001H28.5V27.8001H18.2V59.9001C18.2 63.8001 19.3 64.5001 24.6 64.5001H28.5V72.0001H22C13.2 72.0001 9.70002 70.2001 9.70002 60.7001V27.8001H0.900024V20.3001H9.70002V4.8001H18.2Z" fill="black"/>
<path d="M69.943 54.0001V45.3001C66.643 47.7001 60.243 47.8001 54.543 48.8001C48.943 49.8001 44.143 51.8001 44.143 58.1001C44.143 63.7001 48.943 65.7001 54.143 65.7001C65.343 65.7001 69.943 58.7001 69.943 54.0001ZM83.743 65.2001V71.8001C82.243 72.7001 80.343 73.2001 77.643 73.2001C73.243 73.2001 70.443 70.8001 70.443 65.2001C65.743 70.7001 59.443 73.2001 52.243 73.2001C42.843 73.2001 35.143 69.0001 35.143 58.7001C35.143 47.0001 43.843 44.5001 52.643 42.8001C62.043 41.0001 70.043 41.6001 70.043 35.2001C70.043 27.8001 63.943 26.6001 58.543 26.6001C51.343 26.6001 46.043 28.8001 45.643 36.4001H37.143C37.643 23.6001 47.543 19.1001 59.043 19.1001C68.343 19.1001 78.443 21.2001 78.443 33.3001V59.9001C78.443 63.9001 78.443 65.7001 81.143 65.7001C81.843 65.7001 82.643 65.6001 83.743 65.2001Z" fill="black"/>
<path d="M92.1539 72.0001V0.600098H100.654V72.0001H92.1539Z" fill="black"/>
<path d="M114.322 72.0001V0.600098H122.822V42.9001L146.422 20.3001H157.822L137.322 39.1001L159.322 72.0001H148.522L130.822 45.0001L122.822 52.4001V72.0001H114.322Z" fill="black"/>
<path d="M205.977 45.7001C205.977 36.0001 200.977 26.6001 189.977 26.6001C178.577 26.6001 174.177 36.4001 174.177 46.1001C174.177 56.3001 178.777 65.7001 190.477 65.7001C202.077 65.7001 205.977 55.8001 205.977 45.7001ZM165.977 91.8001V20.3001H174.477V27.3001H174.677C177.477 21.6001 184.077 19.1001 191.177 19.1001C207.077 19.1001 214.977 31.7001 214.977 46.3001C214.977 60.9001 207.177 73.2001 191.377 73.2001C186.077 73.2001 178.477 71.2001 174.677 65.1001H174.477V91.8001H165.977Z" fill="black"/>
<path d="M225.455 72.0001V0.600098H233.955V72.0001H225.455Z" fill="black"/>
<path d="M249.023 72.0001V60.9001H260.123V72.0001H249.023Z" fill="black"/>
<path d="M306.955 54.0001V45.3001C303.655 47.7001 297.255 47.8001 291.555 48.8001C285.955 49.8001 281.155 51.8001 281.155 58.1001C281.155 63.7001 285.955 65.7001 291.155 65.7001C302.355 65.7001 306.955 58.7001 306.955 54.0001ZM320.755 65.2001V71.8001C319.255 72.7001 317.355 73.2001 314.655 73.2001C310.255 73.2001 307.455 70.8001 307.455 65.2001C302.755 70.7001 296.455 73.2001 289.255 73.2001C279.855 73.2001 272.155 69.0001 272.155 58.7001C272.155 47.0001 280.855 44.5001 289.655 42.8001C299.055 41.0001 307.055 41.6001 307.055 35.2001C307.055 27.8001 300.955 26.6001 295.555 26.6001C288.355 26.6001 283.055 28.8001 282.655 36.4001H274.155C274.655 23.6001 284.555 19.1001 296.055 19.1001C305.355 19.1001 315.455 21.2001 315.455 33.3001V59.9001C315.455 63.9001 315.455 65.7001 318.155 65.7001C318.855 65.7001 319.655 65.6001 320.755 65.2001Z" fill="black"/>
<path d="M329.166 72.0001V20.3001H337.666V72.0001H329.166ZM337.666 0.600098V11.0001H329.166V0.600098H337.666Z" fill="black"/>
</svg>
