<svg width="383" height="94" viewBox="0 0 383 94" fill="none" xmlns="http://www.w3.org/2000/svg">
<path d="M6.1 21.5H29.8C31.4 21.5 32.7333 22.0333 33.8 23.1C34.8667 24.1667 35.4 25.5 35.4 27.1C35.4 28.6333 34.8667 29.9333 33.8 31C32.7333 32 31.4 32.5 29.8 32.5H6.1C4.5 32.5 3.16667 31.9667 2.1 30.9C1.03333 29.8333 0.5 28.5 0.5 26.9C0.5 25.3667 1.03333 24.1 2.1 23.1C3.16667 22.0333 4.5 21.5 6.1 21.5ZM16.8 9C18.5333 9 19.9333 9.6 21 10.8C22.1333 11.9333 22.7 13.3667 22.7 15.1V59.6C22.7 60.5333 22.8667 61.3 23.2 61.9C23.6 62.5 24.1 62.9333 24.7 63.2C25.3667 63.4667 26.0667 63.6 26.8 63.6C27.6 63.6 28.3333 63.4667 29 63.2C29.6667 62.8667 30.4333 62.7 31.3 62.7C32.2333 62.7 33.0667 63.1333 33.8 64C34.6 64.8667 35 66.0667 35 67.6C35 69.4667 33.9667 71 31.9 72.2C29.9 73.4 27.7333 74 25.4 74C24 74 22.4333 73.9 20.7 73.7C19.0333 73.4333 17.4333 72.8667 15.9 72C14.4333 71.0667 13.2 69.6667 12.2 67.8C11.2 65.9333 10.7 63.3667 10.7 60.1V15.1C10.7 13.3667 11.2667 11.9333 12.4 10.8C13.6 9.6 15.0667 9 16.8 9Z" fill="black"/>
<path d="M90.218 19.5C91.9513 19.5 93.3846 20.0667 94.518 21.2C95.6513 22.3333 96.218 23.8 96.218 25.6V67.9C96.218 69.6333 95.6513 71.1 94.518 72.3C93.3846 73.4333 91.9513 74 90.218 74C88.4846 74 87.0513 73.4333 85.918 72.3C84.7846 71.1 84.218 69.6333 84.218 67.9V63L86.418 63.9C86.418 64.7667 85.9513 65.8333 85.018 67.1C84.0846 68.3 82.818 69.5 81.218 70.7C79.618 71.9 77.718 72.9333 75.518 73.8C73.3846 74.6 71.0513 75 68.518 75C63.918 75 59.7513 73.8333 56.018 71.5C52.2846 69.1 49.318 65.8333 47.118 61.7C44.9846 57.5 43.918 52.7 43.918 47.3C43.918 41.8333 44.9846 37.0333 47.118 32.9C49.318 28.7 52.2513 25.4333 55.918 23.1C59.5846 20.7 63.6513 19.5 68.118 19.5C70.9846 19.5 73.618 19.9333 76.018 20.8C78.418 21.6667 80.4846 22.7667 82.218 24.1C84.018 25.4333 85.3846 26.8 86.318 28.2C87.318 29.5333 87.818 30.6667 87.818 31.6L84.218 32.9V25.6C84.218 23.8667 84.7846 22.4333 85.918 21.3C87.0513 20.1 88.4846 19.5 90.218 19.5ZM70.018 64C72.9513 64 75.518 63.2667 77.718 61.8C79.918 60.3333 81.618 58.3333 82.818 55.8C84.0846 53.2667 84.718 50.4333 84.718 47.3C84.718 44.1 84.0846 41.2333 82.818 38.7C81.618 36.1667 79.918 34.1667 77.718 32.7C75.518 31.2333 72.9513 30.5 70.018 30.5C67.1513 30.5 64.618 31.2333 62.418 32.7C60.218 34.1667 58.4846 36.1667 57.218 38.7C56.018 41.2333 55.418 44.1 55.418 47.3C55.418 50.4333 56.018 53.2667 57.218 55.8C58.4846 58.3333 60.218 60.3333 62.418 61.8C64.618 63.2667 67.1513 64 70.018 64Z" fill="black"/>
<path d="M122.211 67.9C122.211 69.6333 121.611 71.1 120.411 72.3C119.278 73.4333 117.844 74 116.111 74C114.444 74 113.044 73.4333 111.911 72.3C110.778 71.1 110.211 69.6333 110.211 67.9V6.1C110.211 4.36666 110.778 2.93333 111.911 1.79999C113.111 0.599998 114.578 0 116.311 0C118.044 0 119.444 0.599998 120.511 1.79999C121.644 2.93333 122.211 4.36666 122.211 6.1V67.9Z" fill="black"/>
<path d="M143.164 74C141.431 74 139.997 73.4333 138.864 72.3C137.731 71.1 137.164 69.6333 137.164 67.9V6.1C137.164 4.36666 137.731 2.93333 138.864 1.79999C139.997 0.599998 141.431 0 143.164 0C144.897 0 146.331 0.599998 147.464 1.79999C148.597 2.93333 149.164 4.36666 149.164 6.1V67.9C149.164 69.6333 148.597 71.1 147.464 72.3C146.331 73.4333 144.897 74 143.164 74ZM174.964 20.5C176.497 20.5 177.831 21.1333 178.964 22.4C180.097 23.6667 180.664 24.9 180.664 26.1C180.664 27.7 179.864 29.2 178.264 30.6L148.164 58.3L147.664 44.5L170.564 22.4C171.831 21.1333 173.297 20.5 174.964 20.5ZM176.464 73.9C174.731 73.9 173.264 73.2333 172.064 71.9L153.564 52.3L162.664 43.9L180.664 63.5C181.931 64.8333 182.564 66.3333 182.564 68C182.564 69.7333 181.864 71.1667 180.464 72.3C179.131 73.3667 177.797 73.9 176.464 73.9Z" fill="black"/>
<path d="M220.798 19.5C225.464 19.5 229.631 20.7 233.298 23.1C237.031 25.4333 239.964 28.6667 242.098 32.8C244.298 36.9333 245.398 41.7333 245.398 47.2C245.398 52.6667 244.298 57.5 242.098 61.7C239.964 65.8333 237.064 69.1 233.398 71.5C229.798 73.8333 225.731 75 221.198 75C218.531 75 216.031 74.5667 213.698 73.7C211.364 72.8333 209.298 71.7333 207.498 70.4C205.764 69.0667 204.398 67.7333 203.398 66.4C202.464 65 201.998 63.8333 201.998 62.9L205.098 61.6V87.9C205.098 89.6333 204.531 91.0667 203.398 92.2C202.264 93.4 200.831 94 199.098 94C197.364 94 195.931 93.4333 194.798 92.3C193.664 91.1667 193.098 89.7 193.098 87.9V26.6C193.098 24.8667 193.664 23.4333 194.798 22.3C195.931 21.1 197.364 20.5 199.098 20.5C200.831 20.5 202.264 21.1 203.398 22.3C204.531 23.4333 205.098 24.8667 205.098 26.6V31.5L203.398 30.6C203.398 29.7333 203.864 28.7 204.798 27.5C205.731 26.2333 206.998 25 208.598 23.8C210.198 22.5333 212.031 21.5 214.098 20.7C216.231 19.9 218.464 19.5 220.798 19.5ZM219.298 30.5C216.364 30.5 213.798 31.2333 211.598 32.7C209.398 34.1667 207.664 36.1667 206.398 38.7C205.198 41.1667 204.598 44 204.598 47.2C204.598 50.3333 205.198 53.2 206.398 55.8C207.664 58.3333 209.398 60.3333 211.598 61.8C213.798 63.2667 216.364 64 219.298 64C222.231 64 224.764 63.2667 226.898 61.8C229.098 60.3333 230.798 58.3333 231.998 55.8C233.264 53.2 233.898 50.3333 233.898 47.2C233.898 44 233.264 41.1667 231.998 38.7C230.798 36.1667 229.098 34.1667 226.898 32.7C224.764 31.2333 222.231 30.5 219.298 30.5Z" fill="black"/>
<path d="M268.891 67.9C268.891 69.6333 268.291 71.1 267.091 72.3C265.957 73.4333 264.524 74 262.791 74C261.124 74 259.724 73.4333 258.591 72.3C257.457 71.1 256.891 69.6333 256.891 67.9V6.1C256.891 4.36666 257.457 2.93333 258.591 1.79999C259.791 0.599998 261.257 0 262.991 0C264.724 0 266.124 0.599998 267.191 1.79999C268.324 2.93333 268.891 4.36666 268.891 6.1V67.9Z" fill="black"/>
<path d="M288.144 73.9C286.21 73.9 284.71 73.4 283.644 72.4C282.644 71.3333 282.144 69.8333 282.144 67.9V66.2C282.144 64.2667 282.644 62.8 283.644 61.8C284.71 60.7333 286.21 60.2 288.144 60.2H289.444C291.377 60.2 292.844 60.7333 293.844 61.8C294.91 62.8 295.444 64.2667 295.444 66.2V67.9C295.444 69.8333 294.91 71.3333 293.844 72.4C292.844 73.4 291.377 73.9 289.444 73.9H288.144Z" fill="black"/>
<path d="M351.546 19.5C353.279 19.5 354.713 20.0667 355.846 21.2C356.979 22.3333 357.546 23.8 357.546 25.6V67.9C357.546 69.6333 356.979 71.1 355.846 72.3C354.713 73.4333 353.279 74 351.546 74C349.813 74 348.379 73.4333 347.246 72.3C346.113 71.1 345.546 69.6333 345.546 67.9V63L347.746 63.9C347.746 64.7667 347.279 65.8333 346.346 67.1C345.413 68.3 344.146 69.5 342.546 70.7C340.946 71.9 339.046 72.9333 336.846 73.8C334.713 74.6 332.379 75 329.846 75C325.246 75 321.079 73.8333 317.346 71.5C313.613 69.1 310.646 65.8333 308.446 61.7C306.313 57.5 305.246 52.7 305.246 47.3C305.246 41.8333 306.313 37.0333 308.446 32.9C310.646 28.7 313.579 25.4333 317.246 23.1C320.913 20.7 324.979 19.5 329.446 19.5C332.313 19.5 334.946 19.9333 337.346 20.8C339.746 21.6667 341.813 22.7667 343.546 24.1C345.346 25.4333 346.713 26.8 347.646 28.2C348.646 29.5333 349.146 30.6667 349.146 31.6L345.546 32.9V25.6C345.546 23.8667 346.113 22.4333 347.246 21.3C348.379 20.1 349.813 19.5 351.546 19.5ZM331.346 64C334.279 64 336.846 63.2667 339.046 61.8C341.246 60.3333 342.946 58.3333 344.146 55.8C345.413 53.2667 346.046 50.4333 346.046 47.3C346.046 44.1 345.413 41.2333 344.146 38.7C342.946 36.1667 341.246 34.1667 339.046 32.7C336.846 31.2333 334.279 30.5 331.346 30.5C328.479 30.5 325.946 31.2333 323.746 32.7C321.546 34.1667 319.813 36.1667 318.546 38.7C317.346 41.2333 316.746 44.1 316.746 47.3C316.746 50.4333 317.346 53.2667 318.546 55.8C319.813 58.3333 321.546 60.3333 323.746 61.8C325.946 63.2667 328.479 64 331.346 64Z" fill="black"/>
<path d="M381.839 67.9C381.839 69.6333 381.272 71.1 380.139 72.3C379.006 73.4333 377.572 74 375.839 74C374.106 74 372.672 73.4333 371.539 72.3C370.406 71.1 369.839 69.6333 369.839 67.9V26.6C369.839 24.8667 370.406 23.4333 371.539 22.3C372.672 21.1 374.106 20.5 375.839 20.5C377.572 20.5 379.006 21.1 380.139 22.3C381.272 23.4333 381.839 24.8667 381.839 26.6V67.9ZM375.739 14C373.472 14 371.872 13.6333 370.939 12.9C370.006 12.1667 369.539 10.8667 369.539 9V7.1C369.539 5.16667 370.039 3.86667 371.039 3.2C372.106 2.46666 373.706 2.1 375.839 2.1C378.172 2.1 379.806 2.46666 380.739 3.2C381.672 3.93333 382.139 5.23333 382.139 7.1V9C382.139 10.9333 381.639 12.2667 380.639 13C379.639 13.6667 378.006 14 375.739 14Z" fill="black"/>
</svg>
