<svg width="433" height="92" viewBox="0 0 433 92" fill="none" xmlns="http://www.w3.org/2000/svg">
<path d="M113.3 4.8001V20.3001H123.6V27.8001H113.3V59.9001C113.3 63.8001 114.4 64.5001 119.7 64.5001H123.6V72.0001H117.1C108.3 72.0001 104.8 70.2001 104.8 60.7001V27.8001H96V20.3001H104.8V4.8001H113.3Z" fill="#262626"/>
<path d="M165.043 54.0001V45.3001C161.743 47.7001 155.343 47.8001 149.643 48.8001C144.043 49.8001 139.243 51.8001 139.243 58.1001C139.243 63.7001 144.043 65.7001 149.243 65.7001C160.443 65.7001 165.043 58.7001 165.043 54.0001ZM178.843 65.2001V71.8001C177.343 72.7001 175.443 73.2001 172.743 73.2001C168.343 73.2001 165.543 70.8001 165.543 65.2001C160.843 70.7001 154.543 73.2001 147.343 73.2001C137.943 73.2001 130.243 69.0001 130.243 58.7001C130.243 47.0001 138.943 44.5001 147.743 42.8001C157.143 41.0001 165.143 41.6001 165.143 35.2001C165.143 27.8001 159.043 26.6001 153.643 26.6001C146.443 26.6001 141.143 28.8001 140.743 36.4001H132.243C132.743 23.6001 142.643 19.1001 154.143 19.1001C163.443 19.1001 173.543 21.2001 173.543 33.3001V59.9001C173.543 63.9001 173.543 65.7001 176.243 65.7001C176.943 65.7001 177.743 65.6001 178.843 65.2001Z" fill="#262626"/>
<path d="M187.254 72.0001V0.600098H195.754V72.0001H187.254Z" fill="#262626"/>
<path d="M209.422 72.0001V0.600098H217.922V42.9001L241.522 20.3001H252.922L232.422 39.1001L254.422 72.0001H243.622L225.922 45.0001L217.922 52.4001V72.0001H209.422Z" fill="#262626"/>
<path d="M301.077 45.7001C301.077 36.0001 296.077 26.6001 285.077 26.6001C273.677 26.6001 269.277 36.4001 269.277 46.1001C269.277 56.3001 273.877 65.7001 285.577 65.7001C297.177 65.7001 301.077 55.8001 301.077 45.7001ZM261.077 91.8001V20.3001H269.577V27.3001H269.777C272.577 21.6001 279.177 19.1001 286.277 19.1001C302.177 19.1001 310.077 31.7001 310.077 46.3001C310.077 60.9001 302.277 73.2001 286.477 73.2001C281.177 73.2001 273.577 71.2001 269.777 65.1001H269.577V91.8001H261.077Z" fill="#262626"/>
<path d="M320.555 72.0001V0.600098H329.055V72.0001H320.555Z" fill="#262626"/>
<path d="M344.123 72.0001V60.9001H355.223V72.0001H344.123Z" fill="#262626"/>
<path d="M402.055 54.0001V45.3001C398.755 47.7001 392.355 47.8001 386.655 48.8001C381.055 49.8001 376.255 51.8001 376.255 58.1001C376.255 63.7001 381.055 65.7001 386.255 65.7001C397.455 65.7001 402.055 58.7001 402.055 54.0001ZM415.855 65.2001V71.8001C414.355 72.7001 412.455 73.2001 409.755 73.2001C405.355 73.2001 402.555 70.8001 402.555 65.2001C397.855 70.7001 391.555 73.2001 384.355 73.2001C374.955 73.2001 367.255 69.0001 367.255 58.7001C367.255 47.0001 375.955 44.5001 384.755 42.8001C394.155 41.0001 402.155 41.6001 402.155 35.2001C402.155 27.8001 396.055 26.6001 390.655 26.6001C383.455 26.6001 378.155 28.8001 377.755 36.4001H369.255C369.755 23.6001 379.655 19.1001 391.155 19.1001C400.455 19.1001 410.555 21.2001 410.555 33.3001V59.9001C410.555 63.9001 410.555 65.7001 413.255 65.7001C413.955 65.7001 414.755 65.6001 415.855 65.2001Z" fill="#262626"/>
<path d="M424.266 72.0001V20.3001H432.766V72.0001H424.266ZM432.766 0.600098V11.0001H424.266V0.600098H432.766Z" fill="#262626"/>
<path d="M58.5 38.1699C61.8333 40.0944 61.8333 44.9056 58.5 46.8301L8.25 75.842C4.91666 77.7665 0.75 75.3609 0.75 71.5118L0.750003 13.4881C0.750003 9.63914 4.91667 7.23352 8.25 9.15802L58.5 38.1699Z" fill="#262626"/>
</svg>
